<?xml version="1.0" encoding="UTF-8" standalone="no"?>
<svg
   version="1.1"
   viewBox="0 0 96.000001 96.000001"
   width="128"
   height="128"
   id="svg127"
   sodipodi:docname="icon128.svg"
   inkscape:version="1.3.2 (091e20e, 2023-11-25, custom)"
   xmlns:inkscape="http://www.inkscape.org/namespaces/inkscape"
   xmlns:sodipodi="http://sodipodi.sourceforge.net/DTD/sodipodi-0.dtd"
   xmlns="http://www.w3.org/2000/svg"
   xmlns:svg="http://www.w3.org/2000/svg">
  <defs
     id="defs127" />
  <sodipodi:namedview
     id="namedview127"
     pagecolor="#ffffff"
     bordercolor="#000000"
     borderopacity="0.25"
     inkscape:showpageshadow="2"
     inkscape:pageopacity="0.0"
     inkscape:pagecheckerboard="0"
     inkscape:deskcolor="#d1d1d1"
     inkscape:document-units="pt"
     inkscape:zoom="7.0848785"
     inkscape:cx="55.681971"
     inkscape:cy="40.297092"
     inkscape:window-width="3200"
     inkscape:window-height="1711"
     inkscape:window-x="-9"
     inkscape:window-y="-9"
     inkscape:window-maximized="1"
     inkscape:current-layer="svg127" />
  <g
     id="g127"
     transform="matrix(0.20368265,0,0,0.20428721,-23.282977,-25.26982)">
    <path
       d="m 231.5193,124.20018 c 29.7,0.39 59.28,1.13 88.99,0.19 25.68,0.06 51.34,-0.06 77.01,-0.32 6.27,0.27 12.57,-0.96 18.17,1.66 5.78,2.54 11.33,5.9 16.08,10.08 10.63,10.02 21.67,19.67 32.09,29.9 10.21,10.18 20.3,20.37 31.05,29.97 8.06,8.29 16.58,16.08 24.85,24.15 9.05,9.47 19.57,19.9 25.41,31.7 4.43,10.2 8.14,20.25 7.91,31.54 -0.13,22.34 0.11,44.67 0.29,67 -0.27,47 0.14,94 0.08,141 0.13,11.42 0.63,22.66 -1.79,34.01 -2.02,8.41 -4.54,16.52 -9.14,23.92 -14.64,26.98 -45.51,44.08 -75.93,44.05 -1.35,-0.12 -2.71,-0.19 -4.07,-0.2 -32.33,0.41 -64.67,0.12 -97,0.25 -13.01,0.27 -25.99,-0.29 -39,0.15 -17.67,0.42 -35.33,-0.33 -53,0.03 -2.57,0.08 -5.27,-0.08 -7.79,0.41 -3.87,1.24 -7.31,-0.07 -11.21,0.02 -7.85,0.03 -15.7,-0.06 -23.54,-0.31 -14.85,-1.36 -29.31,-6.9 -41.75,-15.06 -7.62,-5.24 -14.44,-11.47 -20.65,-18.32 -7.67,-8.8 -13.22,-19.61 -17.24,-30.52 -5.6,-16.17 -4.3,-31.59 -4.52,-48.43 -0.18,-30 -0.03,-60 -0.16,-90 -0.34,-7.02 -0.46,-13.98 0.02,-21 0.09,-36.34 0.22,-72.65 0.22,-109 0.12,-15.33 -0.39,-30.67 -0.16,-46 -0.21,-12.13 3.61,-24.62 8.1,-35.79 3.37,-8.69 8.53,-16.33 14.34,-23.56 6.84,-8.63 16.47,-15.49 25.82,-21.17 4.12,-2.59 8.47,-4.19 13,-5.88 7.67,-2.72 15.31,-4.73 23.52,-4.47 z"
       fill="#191f24"
       id="path17" />
    <path
       d="m 232.5193,156.24018 c 27,-0.33 54,0.57 81,0.32 15.69,-0.15 31.33,0.29 47,-0.3 12.68,-0.02 25.33,-0.81 38,-0.81 -1.02,15.46 -0.1,31.12 -0.21,46.62 0.11,8.33 -0.24,16.68 0.05,25.01 0.17,6.8 2.65,13.48 5.8,19.44 4.95,8.04 10.95,15.17 19.71,19.19 5.22,2.42 11.95,1.49 17.65,1.74 26.56,-0.08 53.15,0.47 79.7,-0.17 -0.32,17.29 0.14,34.5 0.1,51.79 0.79,15.64 0.23,31.34 0.48,47 0.36,22.67 -0.22,45.33 0.18,68 -0.08,18 -0.08,36 0.14,54 -0.07,9.7 0.71,19.18 -1.83,28.53 -1.99,6.87 -3.87,13.33 -7.9,19.33 -10.22,15.22 -28.4,25.63 -46.87,25.53 -12.34,0.39 -24.66,-0.17 -37,0.08 -30,0.12 -60,0.35 -90,0.48 -24.67,-0.35 -49.33,0.03 -74,-0.1 -10.04,-0.07 -20.12,0.41 -30.14,-0.03 -13.64,-1.42 -26.87,-8.57 -36.51,-18.17 -10.96,-10.72 -16.8,-25.65 -18.82,-40.64 -1.2,-12.77 -0.8,-25.91 -0.97,-38.75 -0.17,-55.72 -0.11,-111.54 0.03,-167.26 -0.1,-22.65 -0.42,-45.35 -0.08,-68 0.19,-11.01 -0.31,-21.26 2.82,-31.96 3.14,-11.12 9.06,-21.31 18.14,-28.6 9.28,-7.55 21.48,-12.52 33.53,-12.27 z"
       fill="#e5e7e8"
       id="path18"
       style="fill:#ffffff;fill-opacity:1" />
    <path
       d="m 433.6693,179.87018 c 7.77,7.28 15.41,14.59 22.82,22.23 8.88,8.47 17.01,17.66 25.83,26.19 1.44,1.38 2.5,2.79 3.43,4.56 -9.74,0.2 -19.48,-0.14 -29.23,0.19 -6.81,-0.08 -13.8,0.39 -20.55,-0.48 -2.1,-0.41 -2.29,-1.55 -2.44,-3.46 -0.62,-11.3 -0.13,-22.69 -0.48,-34.01 -0.06,-4.94 -0.52,-10.4 0.62,-15.22 z"
       fill="#e5e7e8"
       id="path19" />
    <path
       d="m 328.8893,196.70018 c 1.12,1.19 3.13,2.32 2.39,4.24 -1.34,2.6 -3.17,5.09 -5.55,6.82 -2.71,-3.37 -7,-6.25 -11.32,-3.91 -1.9,1.35 -5.29,4.74 -2.61,6.95 3.87,2.67 9.45,3.25 13.61,5.4 3,1.66 6.3,4.03 7.9,7.14 1.53,6.72 0.28,13.8 -5.18,18.38 -6.12,5.18 -14.52,4.52 -21.73,2.37 -3.19,-0.92 -7.09,-3.23 -6.82,-7.05 0.69,-3.22 3.74,-5.71 6.95,-6 2.61,0.08 4.02,1.68 5.58,3.52 2.87,0 6.99,0.67 8.98,-1.93 1.44,-1.24 2.08,-4.51 0.82,-5.89 -5.19,-2.67 -11.07,-3.65 -16.07,-6.99 -2.25,-1.6 -4.67,-3.43 -6.24,-5.73 -1.44,-6.06 0.16,-12.73 5.01,-16.85 6.49,-6.4 17.58,-6.71 24.28,-0.47 z"
       fill="#191f24"
       id="path20" />
    <path
       d="m 212.9493,193.37018 c 0.88,-1.09 3.28,-0.5 4.57,-0.64 6.33,0.44 12.79,-0.6 19.03,0.38 7.26,1.41 13.66,8.25 12.7,15.99 -0.11,4.17 -2.65,6.42 -5.35,9.18 2.45,1.79 4.79,3.43 6.27,6.16 1.75,2.7 1.88,6.39 1.13,9.42 -1.9,4.44 -6.14,8.58 -10.69,10.22 -4.18,1.06 -8.79,0.79 -13.09,1 -4.91,0.04 -10.07,0.63 -14.92,-0.16 l -0.64,-0.84 c -0.11,-8.99 0.12,-18.03 0.51,-27.01 0.18,-7.87 -0.25,-15.87 0.48,-23.7 z"
       fill="#191f24"
       id="path21" />
    <path
       d="m 270.0093,193.31018 c 3.28,-0.5 6.73,-0.2 10.04,-0.12 2.39,5.22 5,10.21 6.61,15.76 3.59,9.32 7.4,18.51 10.23,28.11 0.49,1.91 2.15,4.03 1.68,5.98 -1.67,2.41 -4.47,2.06 -7.05,2.11 -1.44,-0.25 -3.04,0.47 -3.59,-1.27 -1.38,-3.4 -2.09,-6.83 -4.47,-9.8 -6.18,-0.11 -12.48,-0.32 -18.66,-0.01 -1.13,3.51 -1.95,7.08 -3.24,10.54 -3.05,-0.35 -6.09,-0.03 -9.14,-0.35 -0.26,-7.11 3.89,-13.66 6.16,-20.18 3.5,-10.33 7.05,-20.78 11.43,-30.77 z"
       fill="#191f24"
       id="path22" />
    <path
       d="m 353.5193,192.91018 c 6.17,-0.13 11.81,-1.02 17.84,0.17 0.77,3.31 1.17,6.49 1.12,9.89 -3.66,0.26 -7.3,0.71 -10.96,0.94 -3.77,0.26 -7.34,-0.14 -11,1.07 0.11,2.52 -0.3,5.31 0.34,7.75 5.34,0.9 11.16,-0.13 16.57,0.54 4.12,0.7 3.35,5.78 3.79,8.84 0.15,1.76 -1.27,1.91 -2.67,1.93 -5.68,0.11 -11.35,-0.09 -17.03,0.24 -0.6,3.37 -0.82,6.75 -0.84,10.17 6.76,-0.1 14.32,-1.28 20.88,0.56 0.85,2.64 1.4,5.35 1.46,8.13 -0.75,2.06 -3.74,1.85 -5.5,1.92 -8.34,-0.28 -16.68,-0.23 -25.03,-0.07 -1.57,-0.01 -2.87,0.12 -2.84,-1.88 -0.13,-8.13 -1.11,-15.92 -0.4,-24.05 0.43,-8.66 -0.09,-17.35 0.34,-26.03 4.65,-0.01 9.28,0.1 13.93,-0.12 z"
       fill="#191f24"
       id="path23" />
    <path
       d="m 223.5193,203.96018 c 4.23,-0.56 8.47,-0.64 12.65,0.37 1.89,0.98 1.38,2.95 1.48,4.74 -0.07,2.01 -0.26,3.84 -2.28,4.77 -3.88,0.56 -7.91,0.41 -11.81,0.22 -0.05,-3.37 -0.04,-6.73 -0.04,-10.1 z"
       fill="#e5e7e8"
       id="path24"
       style="fill:#ffffff;fill-opacity:1" />
    <path
       d="m 275.2993,208.44018 c 1.62,5.26 4.28,10.05 6.03,15.25 -4.31,-0.39 -8.61,-0.41 -12.92,-0.49 2.1,-4.09 3.46,-8.48 5.69,-12.51 0.39,-0.75 0.8,-1.5 1.2,-2.25 z"
       fill="#e5e7e8"
       id="path25"
       style="fill:#e7e7e7;fill-opacity:1" />
    <path
       d="m 223.8393,224.48018 c 3.5,-0.57 7.16,-1 10.71,-0.96 3.16,-0.06 4.95,3.66 4.96,6.38 0.05,2.15 -2.07,3.62 -3.97,4 -3.97,0.55 -8.02,0.6 -12.02,0.91 0.08,-3.41 -0.21,-6.95 0.32,-10.33 z"
       fill="#e5e7e8"
       id="path26"
       style="display:inline" />
    <path
       d="m 317.9593,303.77018 c 6.08,3.26 11.88,6.33 16.74,11.31 -8,6.82 -13.4,16.84 -20.17,25.05 -7.35,-7.4 -16.97,-9.39 -27.01,-10.02 -7.56,-0.38 -15.12,1.42 -21.58,5.38 -4.67,3.18 -8.62,7.51 -11.93,12.06 -4.34,6.17 -5.72,12.77 -8.35,19.66 -0.83,2.03 -1.2,3.96 -1.35,6.15 3.55,-2.78 6.56,-5.79 10.61,-7.91 10.31,-5.3 22.12,-7.26 33.61,-5.87 14.65,0.96 28.93,7.87 39.34,18.15 6.53,6.76 10.96,15.79 13.38,24.82 2.99,11.88 1.14,24.71 -3.14,36.05 -1.92,4.72 -5.02,9.07 -7.7,13.4 -2.8,4.61 -6.94,8.49 -10.85,12.16 -5.85,4.81 -13.18,8.02 -20.19,10.76 -13.39,4.34 -28.42,5.23 -42.02,1.36 -11.79,-3.04 -22.21,-9.7 -30.62,-18.41 -5.92,-6.38 -10.34,-14.36 -13.86,-22.26 -5.65,-13.78 -6.52,-27.83 -6.2,-42.54 -0.35,-22.19 4.56,-45.06 17.27,-63.56 8,-13.09 20.62,-23.61 35.11,-28.74 18.8,-6.07 41.11,-6.38 58.91,3 z"
       fill="#191f24"
       id="path27"
       style="display:inline" />
    <path
       d="m 441.4793,298.17018 c 11.68,0.05 23.37,-0.26 35.06,-0.04 1.44,0.06 2.64,0.32 3.98,0.9 0.91,2.08 0.41,4.8 0.5,7.04 -0.51,16.67 0.14,33.33 -0.19,50 -0.23,16.56 0.2,33.18 -0.71,49.72 4.7,-0.14 9.7,-0.45 14.33,0.47 1.56,0.31 1.99,1.34 2.12,2.81 0.76,5.93 0.62,12.03 0.81,18 0.03,2.6 0.27,5.32 -0.18,7.88 -0.65,2.13 -2.58,3.03 -4.64,3.28 -4.17,0.45 -8.4,0.3 -12.58,0.55 0.72,9.07 0.73,18.2 0.99,27.29 0.03,2.59 0.22,5.45 -0.45,7.97 -0.99,2.45 -3.43,3.67 -5.99,3.74 -6.33,0.16 -12.67,-0.42 -19.01,-0.13 -2.68,-0.01 -5.83,0.4 -7.9,-1.69 -2.3,-2.19 -2.36,-4.91 -2.51,-7.89 -0.22,-10.09 -0.3,-20.18 -0.3,-30.27 -7.11,-0.01 -14.21,-0.07 -21.31,0.21 -17.3,0.71 -34.65,-0.15 -51.98,0 -2.99,-0.08 -6.3,0.23 -9.19,-0.62 -2.49,-2.09 -2.38,-5.35 -2.43,-8.31 0.1,-6.34 -0.09,-12.69 0.06,-19.04 -0.1,-2.15 1.38,-3.35 2.55,-4.98 5.52,-6.68 9.65,-14.19 14.9,-21.05 7.08,-9.37 13.12,-19.43 20.36,-28.69 7.81,-10.2 14.71,-21.2 22.9,-31.15 6.09,-7.35 11.71,-15.09 17.04,-23 0.95,-1.15 2.04,-3.21 3.77,-3 z"
       fill="#191f24"
       id="path28"
       style="display:inline" />
    <path
       d="m 445.2193,344.26018 c -0.23,20.79 -0.43,41.57 0.18,62.36 -5.68,-0.86 -11.09,-0.47 -16.88,-0.54 -7.34,0.12 -14.66,-0.14 -22,0.14 -1.09,-0.09 -2.68,0.27 -3.57,-0.47 2.7,-5.74 6.84,-10.72 9.97,-16.26 3.58,-4.59 6.09,-9.81 9.73,-14.33 3.87,-4.92 6.42,-10.61 10.64,-15.3 4.27,-4.9 7.14,-11.24 11.93,-15.6 z"
       fill="#e5e7e8"
       id="path29"
       style="fill:#ffffff;fill-opacity:1"
       inkscape:label="path29" />
    <path
       d="m 269.6693,392.31018 c 11.3,-2.62 23.92,-0.13 30.98,9.68 8.67,11.38 5.83,28.35 -5.06,37.19 -6.51,5.18 -15.65,8.26 -23.93,6.44 -5.17,-1.18 -10.07,-3.02 -14.2,-6.44 -5.64,-4.42 -9.38,-10.75 -11.14,-17.65 -1.33,-5.81 -0.81,-11.98 2.75,-16.92 4.77,-7.13 12.55,-10.36 20.6,-12.3 z"
       fill="#e5e7e8"
       id="path30"
       style="fill:#ffffff;fill-opacity:1" />
    <path
       d="m 363.5193,504.19018 c 20.04,-0.95 39.98,0.52 60,0 16.01,-0.2 32.02,0.31 48.04,0.43 4.29,-0.09 8.03,1.35 10.66,4.82 4.37,5.72 1.99,14.89 -4.75,17.49 -6.93,0.62 -13.99,0.14 -20.95,0.38 -18.57,0.53 -37.12,-0.14 -55.69,0.26 -16.77,0.31 -33.54,-0.2 -50.31,0.19 -7.59,0.14 -15.18,0.09 -22.77,-0.09 -17.09,-0.36 -34.15,0.1 -51.23,-0.03 -13.75,-0.01 -28.03,-0.72 -42,-0.09 -3.5,0.07 -6.78,0.33 -9.93,-1.52 -3.22,-1.96 -5.77,-5.4 -6.58,-9.09 -0.79,-5.31 3.29,-10.68 8.65,-11.32 7.4,-0.91 14.49,-0.72 21.86,-0.76 38.33,-0.58 76.66,-0.29 115,-0.67 z"
       fill="#191f24"
       id="path31" />
  </g>
</svg>
